# File created by Blade
# Date/Time:  Wed Jan 21 17:34:04 2015
# Frame Rate: 120.000 fps
#------------------------------------------------------
:FULLY-SPECIFIED
:DEGREES
1525
root 20.919441 35.499143 -21.114756 -179.598336 -1.906758 -180.016402
Spine -9.769545 -0.498127 -1.442039
Head 9.921325 -0.957003 1.707084
LeftShoulder -9.519719 -31.190856 15.413974
LeftArm 8.306743 13.218817 -9.999447
LeftForeArm 11.413142 -0.000000 0.703410
LeftHand -3.215342 -0.000000 -2.069015
LeftHandThumb1 -26.253704 0.000000 33.147579
RightShoulder -11.545079 -7.377049 -6.837836
RightArm 7.629132 24.133677 16.386691
RightForeArm -33.471714 -0.000000 6.501306
RightHand -3.320274 -0.000000 7.304000
RightHandThumb1 -24.326973 -0.000000 -32.862282
LeftUpLeg 7.031475 9.578790 2.046713
LeftLeg -4.679114 -0.000000 0.000000
LeftFoot -18.372626 24.373390 -10.614726
LeftToeBase 25.056149 -0.000000 -0.000000
RightUpLeg 6.708392 -9.108493 -4.152787
RightLeg -1.909467 -0.000000 0.000000
RightFoot -20.634919 -21.638958 16.377874
RightToeBase 26.218799 -0.000000 -0.000000
1526
root 20.931647 35.492811 -21.173508 -179.609898 -1.904047 -180.029885
Spine -9.911430 -0.467516 -1.426916
Head 10.180679 -1.017021 1.735699
LeftShoulder -9.629501 -31.371462 15.737664
LeftArm 8.266861 12.773063 -9.559361
LeftForeArm 11.732301 -0.000000 0.646076
LeftHand -3.457285 -0.000000 -1.953786
LeftHandThumb1 -26.253704 0.000000 33.147579
RightShoulder -11.619407 -7.171779 -7.148139
RightArm 7.263179 24.363278 15.732279
RightForeArm -33.774140 -0.000000 6.487822
RightHand -3.369562 -0.000000 7.317491
RightHandThumb1 -24.326973 -0.000000 -32.862282
LeftUpLeg 7.209174 9.490392 2.069815
LeftLeg -4.808712 -0.000000 0.000000
LeftFoot -18.408291 24.451889 -10.722373
LeftToeBase 25.054817 -0.000000 -0.000000
RightUpLeg 6.814108 -9.146586 -4.153068
RightLeg -1.914678 -0.000000 0.000000
RightFoot -20.703947 -21.659678 16.267834
RightToeBase 26.242143 -0.000000 -0.000000
1527
root 20.946129 35.486746 -21.234533 -179.630371 -1.855873 -180.025150
Spine -10.035103 -0.392032 -1.388456
Head 10.383617 -1.186403 1.730423
LeftShoulder -9.781311 -31.544554 16.068218
LeftArm 8.249511 12.342340 -9.145519
LeftForeArm 12.045721 -0.000000 0.570288
LeftHand -3.593427 -0.000000 -1.882291
LeftHandThumb1 -26.253704 0.000000 33.147579
RightShoulder -11.705930 -6.942439 -7.473885
RightArm 6.916100 24.555912 15.120674
RightForeArm -34.064120 -0.000000 6.521132
RightHand -3.509495 -0.000000 7.406744
RightHandThumb1 -24.326973 -0.000000 -32.862282
LeftUpLeg 7.422848 9.439830 2.117675
LeftLeg -4.971469 -0.000000 0.000000
LeftFoot -18.436090 24.545583 -10.840428
LeftToeBase 24.997137 -0.000000 -0.000000
RightUpLeg 6.942965 -9.101314 -4.126734
RightLeg -1.960300 -0.000000 0.000000
RightFoot -20.756449 -21.691975 16.178608
RightToeBase 26.111354 -0.000000 -0.000000
1528
root 20.956946 35.480447 -21.293386 -179.644971 -1.867870 -180.034884
Spine -10.177308 -0.392563 -1.365430
Head 10.636676 -1.297430 1.700615
LeftShoulder -9.888471 -31.716496 16.386377
LeftArm 8.175100 12.008157 -8.744477
LeftForeArm 12.080348 -0.000000 0.488664
LeftHand -3.611952 -0.000000 -1.692119
LeftHandThumb1 -26.253704 0.000000 33.147579
RightShoulder -11.825254 -6.889134 -7.737965
RightArm 6.733060 24.810992 14.552871
RightForeArm -34.235545 -0.000000 6.452433
RightHand -3.559768 -0.000000 7.292251
RightHandThumb1 -24.326973 -0.000000 -32.862282
LeftUpLeg 7.602157 9.363154 2.148383
LeftLeg -5.097776 -0.000000 0.000000
LeftFoot -18.457880 24.582753 -10.930754
LeftToeBase 24.969827 -0.000000 -0.000000
RightUpLeg 7.108145 -9.062411 -4.112990
RightLeg -2.074255 -0.000000 0.000000
RightFoot -20.807357 -21.818803 16.137885
RightToeBase 26.082783 -0.000000 -0.000000
1529
root 20.967153 35.474495 -21.361241 -179.673568 -1.878195 -180.032128
Spine -10.312809 -0.364720 -1.327508
Head 10.859956 -1.403264 1.696201
LeftShoulder -10.053870 -31.826708 16.704442
LeftArm 8.220669 11.790391 -8.345981
LeftForeArm 12.285983 -0.000000 0.380954
LeftHand -3.742174 -0.000000 -1.642339
LeftHandThumb1 -26.253704 0.000000 33.147579
RightShoulder -11.970767 -6.715272 -8.032366
RightArm 6.505507 24.987709 13.992287
RightForeArm -34.443827 0.000000 6.455695
RightHand -3.729995 0.000000 7.408197
RightHandThumb1 -24.326973 -0.000000 -32.862282
LeftUpLeg 7.818375 9.327832 2.197414
LeftLeg -5.243280 -0.000000 0.000000
LeftFoot -18.490836 24.589785 -11.033999
LeftToeBase 24.989587 -0.000000 -0.000000
RightUpLeg 7.320574 -9.004421 -4.093305
RightLeg -2.220070 -0.000000 0.000000
RightFoot -20.830355 -21.968434 16.108699
RightToeBase 26.169073 -0.000000 -0.000000
1530
root 20.977425 35.467522 -21.423289 -179.692795 -1.937615 -180.054343
Spine -10.448193 -0.428165 -1.322603
Head 11.075304 -1.517258 1.672052
LeftShoulder -10.209672 -31.973641 17.015697
LeftArm 8.196355 11.583763 -7.943918
LeftForeArm 12.428320 -0.000000 0.289798
LeftHand -3.792861 -0.000000 -1.428080
LeftHandThumb1 -26.253704 0.000000 33.147579
RightShoulder -11.997508 -6.461527 -8.309847
RightArm 6.143662 25.130343 13.391465
RightForeArm -34.752312 -0.000000 6.477214
RightHand -3.784926 -0.000000 7.329116
RightHandThumb1 -24.326973 -0.000000 -32.862282
LeftUpLeg 7.958944 9.265719 2.216939
LeftLeg -5.291998 -0.000000 0.000000
LeftFoot -18.546680 24.624937 -11.084279
LeftToeBase 25.024616 -0.000000 -0.000000
RightUpLeg 7.506819 -9.044228 -4.101807
RightLeg -2.331939 -0.000000 0.000000
RightFoot -20.895301 -22.024142 16.010396
RightToeBase 26.168280 -0.000000 -0.000000
